<?xml version="1.0" standalone="no"?>
<!DOCTYPE svg PUBLIC "-//W3C//DTD SVG 20010904//EN"
 "http://www.w3.org/TR/2001/REC-SVG-20010904/DTD/svg10.dtd">
<svg version="1.0" xmlns="http://www.w3.org/2000/svg"
 width="326.000000pt" height="326.000000pt" viewBox="0 0 326.000000 326.000000"
 preserveAspectRatio="xMidYMid meet">
<metadata>
Created by potrace 1.11, written by Peter Selinger 2001-2013
</metadata>
<g transform="translate(0.000000,326.000000) scale(0.100000,-0.100000)"
fill="#000000" stroke="none">
<path d="M1365 2932 l-220 -128 -3 -871 c-2 -689 1 -873 10 -881 12 -9 254
-152 348 -204 25 -14 160 -92 300 -173 140 -81 387 -224 549 -318 228 -131
298 -167 310 -160 14 9 16 46 19 264 1 140 -1 259 -5 265 -6 8 -392 234 -653
382 -139 78 -377 217 -384 223 -6 5 -10 345 -10 856 -1 467 -5 854 -9 861 -5
6 -14 12 -20 12 -7 -1 -111 -58 -232 -128z"/>
<path d="M537 2768 c-2 -13 -4 -283 -3 -601 l1 -578 -35 -22 c-19 -11 -46 -27
-60 -34 -14 -7 -34 -18 -44 -25 -42 -27 -122 -75 -136 -81 -8 -4 -69 -39 -135
-79 l-120 -73 -3 -263 c-2 -237 -1 -263 14 -269 16 -6 54 10 127 55 21 13 53
31 70 41 77 44 263 152 277 160 15 10 143 85 215 126 22 13 101 59 175 102
l135 79 1 612 c0 546 -1 613 -15 625 -34 29 -423 247 -441 247 -10 0 -20 -9
-23 -22z"/>
<path d="M2380 2611 c-52 -32 -115 -69 -140 -83 -80 -45 -495 -289 -499 -294
-2 -2 -3 -189 -2 -416 l2 -413 27 -22 c15 -12 30 -22 34 -23 4 0 92 -50 195
-110 103 -61 193 -110 200 -110 6 0 15 5 19 11 3 6 6 190 6 409 l0 397 92 54
c50 30 112 66 137 81 l45 26 140 -81 139 -82 0 -380 c-1 -209 2 -391 5 -405 4
-14 14 -25 22 -25 9 0 116 58 237 130 l221 129 0 412 0 413 -27 19 c-24 16
-440 260 -553 324 -19 11 -65 38 -102 59 -36 22 -75 39 -85 38 -10 0 -61 -27
-113 -58z"/>
</g>
</svg>
